<?xml version="1.0" encoding="utf-8"?>
<!-- Generator: Adobe Illustrator 23.0.4, SVG Export Plug-In . SVG Version: 6.00 Build 0)  -->
<svg version="1.0" id="Layer_1" xmlns="http://www.w3.org/2000/svg" xmlns:xlink="http://www.w3.org/1999/xlink" x="0px" y="0px"
	 viewBox="0 0 155.13 95.82" enable-background="new 0 0 155.13 95.82" xml:space="preserve">
<g>
	<path d="M123.93,31.43c2.53-3.19,5.91-5.76,9.8-7.2c1.94-0.71,4.01-1.1,6.09-1.12c2.08-0.03,4.18,0.39,6.09,1.21
		c1.91,0.84,3.63,2.08,5.02,3.62c1.39,1.53,2.44,3.35,3.12,5.28c0.69,1.94,0.96,3.99,1.05,6.02c0.07,2.04-0.03,4.09-0.39,6.11
		c-0.69,4.02-2.4,8.01-5.37,10.97c-1.47,1.48-3.25,2.67-5.18,3.47c-1.94,0.8-3.81,1.24-5.89,1.33c-2.08,0.08-5.16,0.02-7.4-1.01
		c-2.95-1.35-5.69-4.91-5.87-8.49c-0.23-4.55,2.43-6.78,3.95-6.66c0.86,0.07,1.14,0.97,0.73,1.57c-0.82,1.19-1.95-0.07-2.94,0.62
		c-0.45,0.31-1.21,1.69-1.17,3.92c0.04,2.4,1.28,4.44,1.66,4.94c3.62,4.74,11.55,4.46,16.56,2.85c1.6-0.51,3.51-1.81,4.92-3.19
		c2.84-2.76,4.63-6.51,5.49-10.43c0.41-1.96,0.61-3.99,0.57-6c-0.15-6.37-5.29-14.4-15.82-14.69c-1.62-0.05-3.94,0.32-5.71,0.91
		c-4.42,1.46-7.9,4.14-6.78,4.2C126.38,29.62,123.93,31.43,123.93,31.43z"/>
	<path d="M47.86,60.69c0.25-0.92-0.12-2.29-1.24-2.68c-1.29-0.45-3.68-0.35-6.51,1.74c-1.47,1.1-2.76,2.43-3.85,3.91
		c-1.09,1.48-2,3.09-2.63,4.83c-0.6,1.73-0.94,3.6-0.77,5.45c0.13,1.86,0.75,3.57,1.7,5.25c0.95,1.69,3.96,5.06,10.39,4.95
		c3.25-0.06,7.43-2.39,8.78-4.68c1.81-3.06,0.88-5.38,0.44-6.11c-0.22-0.37-0.49-0.7-0.81-0.97c-0.33-0.27-0.72-0.5-1.11-0.64
		c-1.84-0.69-3.99-0.24-5.35,1.6c-0.38,0.52-1.36,2.26-0.15,2.58c1.69,0.45,1.58,2.07,0.67,2.44c-0.78,0.32-1.76-0.09-2.05-1.23
		c-0.34-0.94-0.52-2.96,1.57-4.87c0.71-0.65,1.64-1.07,2.6-1.28c0.96-0.22,1.98-0.21,2.95,0.11c0.97,0.3,1.83,0.98,2.37,1.85
		c0.56,0.87,2.36,5.15-0.89,8.48c-1.55,1.6-2.95,2.65-4.78,3.3c-1.84,0.65-3.8,0.93-5.73,0.78c-1.93-0.16-3.85-0.75-5.46-1.83
		c-0.8-0.54-1.53-1.19-2.15-1.92c-0.32-0.36-0.58-0.76-0.85-1.16c-0.28-0.39-0.5-0.81-0.75-1.21c-0.45-0.84-0.86-1.7-1.13-2.61
		c-0.29-0.9-0.5-1.84-0.59-2.78c-0.21-1.89-0.03-3.83,0.51-5.67c0.27-0.92,0.62-1.82,1.03-2.68c0.43-0.86,0.93-1.69,1.49-2.46
		c0.56-0.78,1.19-1.51,1.87-2.19c0.68-0.68,1.41-1.31,2.21-1.86c0.79-0.55,1.63-1.04,2.55-1.38c0.91-0.36,1.76-0.61,3.15-0.61
		s2.91,0.79,2.97,2.11c0.04,0.88-0.24,1.59-0.24,1.59S47.89,60.91,47.86,60.69z"/>
	<path d="M96.94,55.27c-0.17,0.18-0.5,0.52-1.69,1.72c-1.19,1.2-2.15,2.11-3.39,3.26c-0.32,0.34-1.08,0.8-1.75,0.52
		c-0.5-0.19-0.75-0.59-0.78-1.11c-0.04-0.53,0.21-1.02,0.53-1.36c0.3-0.32,0.59-0.62,0.89-0.92c1.19-1.21,2.38-2.4,3.6-3.57
		l3.65-3.51l1.84-1.74c1.11-1.08,4.42-3.57,6.33-4.36c1.59-0.66,3.25-1.18,4.96-1.41c3.42-0.47,7,0.21,9.96,1.97
		c1.48,0.86,2.81,1.98,3.98,3.21c1.17,1.23,2.21,2.59,3.1,4.04c1.77,2.89,2.87,6.27,2.71,9.69c-0.07,1.71-0.43,3.39-1.01,5
		c-0.59,1.6-1.41,3.12-2.42,4.5c-0.5,0.69-1.05,1.35-1.66,1.97c-0.62,0.6-1.29,1.14-2,1.63c-1.42,0.98-3.01,1.71-4.67,2.18
		c-3.34,0.96-7.42,0.5-10.21-0.24c-6.81-1.79-13.53-6.75-20.88-6.72c-0.64,0-2.42,0.22-2.81,0.32c-1.6,0.35-3.13,0.97-4.48,1.86
		c-1.36,0.89-2.5,2.09-3.38,3.47c-0.88,1.38-1.49,2.93-1.89,4.53c-0.19,0.77-0.82,3.56-0.13,6.33c0.75,3.03,1.89,4.67,2.39,5.28
		c1.21,1.47,2.2,2.4,3.62,2.83c0.39,0.12,0.92,0.07,1.38-0.39c0.75-0.74,1.7-0.5,1.96,0.16c0.29,0.75-0.3,1.22-0.97,1.37
		c-0.74,0.17-1.71-0.12-2.5-0.44c-0.8-0.32-1.51-0.81-2.18-1.33c-1.31-1.1-2.43-2.43-3.25-3.94c-0.82-1.5-1.41-3.17-1.49-4.92
		c-0.09-1.72,0.07-3.44,0.45-5.12c0.38-1.68,1-3.32,1.91-4.8c0.91-1.48,2.12-2.8,3.57-3.79c1.44-1,3.09-1.67,4.79-2.04
		c0.42-0.11,0.85-0.17,1.28-0.23c0.43-0.06,0.85-0.14,1.28-0.18c10.88-1.31,21.47,9,31.36,7.26c1.05-0.18,3.12-1.08,4.51-1.99
		c0.69-0.45,1.35-0.95,1.96-1.51c0.6-0.56,1.15-1.19,1.65-1.85c2-2.64,3.37-5.85,3.51-9.2c0.09-1.67-0.12-3.34-0.58-4.95
		c-0.45-1.61-1.2-3.13-2.08-4.55c-1.78-2.83-4.14-5.36-7.05-6.96c-2.41-1.22-5.34-1.73-8.72-1.52c-7.85,0.48-15.3,8.28-16.3,9.22
		c-1,0.94-5.67,5.54-5.92,6.05c-0.39,0.8,0.01,1.29,0.3,1.41c0.29,0.12,0.63,0.23,1.35-0.35c0.72-0.57,4.58-4.39,5.23-5.05
		C97.39,54.31,96.94,55.27,96.94,55.27z"/>
	<path d="M79.19,31.81c-0.38,0.08-0.63,0.36-0.96,0.6c-0.39,0.29-1.1,0.39-1.49,0.05c-0.6-0.52-0.56-1.65-0.11-2.31
		c0.1-0.15,0.19-0.31,0.3-0.45c0.11-0.13,0.23-0.27,0.34-0.4l0.68-0.74l2.72-2.97c0.9-0.99,1.81-1.98,2.74-2.94
		c1.87-1.93,3.75-3.86,5.88-5.56c0.54-0.42,1.09-0.83,1.7-1.18c0.31-0.17,0.63-0.33,0.99-0.45c0.35-0.11,0.76-0.22,1.23-0.1
		c0.24,0.05,0.46,0.21,0.63,0.39c0.18,0.23,0.26,0.51,0.25,0.73c0,0.46-0.15,0.81-0.3,1.15c-0.32,0.66-0.73,1.22-1.17,1.76
		c-0.89,1.06-1.92,1.97-3.02,2.78c-1.1,0.81-2.28,1.5-3.53,2.05c-0.63,0.26-1.28,0.49-1.94,0.66c-0.67,0.16-1.34,0.28-2.03,0.31
		c-0.69,0.02-1.37-0.01-2.05-0.14c-0.67-0.15-1.32-0.38-1.93-0.69c-1.21-0.63-2.28-1.47-3.28-2.38c-1-0.91-1.93-1.89-2.81-2.91
		c-1.75-2.05-3.36-4.2-4.91-6.4l-2.3-3.3c-0.38-0.55-0.77-1.09-1.17-1.62c-0.2-0.27-0.4-0.52-0.61-0.77
		c-0.22-0.25-0.44-0.5-0.66-0.74c-1.77-1.97-3.91-3.56-6.38-4.4c-1.23-0.42-2.86-0.69-3.82-0.78c-7.29-0.67-15.01,5.46-13.91,14.02
		c0.08,0.61,0.73,2.49,1.39,3.6c0.69,1.1,1.57,2.07,2.58,2.9c1,0.84,2.18,1.46,3.38,2c2.45,1,4.19,1.4,5.93,1.38l0.52,0.34
		c-2.04,0.05-4.08-0.32-6.64-1.26c-1.26-0.51-2.5-1.11-3.59-1.96c-1.09-0.84-2.08-1.83-2.83-3c-0.74-1.17-1.27-2.48-1.58-3.83
		c-0.3-1.36-0.33-2.76-0.22-4.14c0.12-1.38,0.51-2.74,1.09-4.01c0.58-1.27,1.4-2.44,2.4-3.41c2-1.96,4.67-3.2,7.42-3.54
		c1.38-0.2,2.76-0.17,4.13-0.04c1.37,0.13,2.73,0.41,4.03,0.87c1.3,0.47,2.54,1.12,3.65,1.94c1.12,0.81,2.1,1.78,3,2.8
		c0.23,0.25,0.44,0.51,0.66,0.77c0.22,0.27,0.43,0.55,0.62,0.82c0.39,0.56,0.76,1.12,1.13,1.68l2.19,3.37
		c1.49,2.23,3,4.44,4.73,6.48c1.73,2.02,3.61,4,5.98,5.2c0.59,0.29,1.21,0.5,1.85,0.64c0.64,0.12,1.3,0.15,1.95,0.1
		c0.65-0.05,1.3-0.19,1.93-0.37c0.63-0.19,1.24-0.43,1.84-0.7c2.37-1.14,4.5-2.83,6.15-4.84c1.38-1.77,0.62-3.39-2.2-1.12
		c-2.08,1.62-3.99,3.52-5.87,5.41l-5.63,5.75l-0.7,0.72l-0.33,0.35c-0.1,0.12-0.19,0.25-0.28,0.37c-0.15,0.27-0.45,1.08,0.06,1.59
		c0.24,0.25,0.67,0.4,1.39-0.29c0.33-0.31,0.41-0.43,0.66-0.67C79.12,31,79.36,31.77,79.19,31.81z"/>
	<path d="M14.02,25.3c-1.55-0.11-3.49,0.28-4.99,0.91c-3.66,1.56-7.89,5.51-7.73,12.07c0.05,2,0.18,5.3,3.32,9.24
		c0.71,0.88,4.36,3.51,6.56,3.87c3.84,0.64,8.32,0.65,14.62-1.37c6.3-2.02,8.25-3.16,15.82-6.09s11.87,1.5,11.45,3.64
		c-0.23,1.16-1.13,1.36-1.65,1.04c-0.38-0.23-0.92-0.94-0.27-1.95c1.48-2.31-4.1-4.46-8.94-2.46c-2.99,1.23-4.83,2.22-6.44,3.02
		c-2.02,1-6.85,3.38-11.37,4.4c-2.8,0.63-9.21,2.2-15.07-0.23c-1.18-0.49-3.14-1.83-4.53-3.13c-1.4-1.29-2.53-2.88-3.32-4.62
		c-0.22-0.43-0.37-0.88-0.54-1.33c-0.08-0.23-0.17-0.45-0.24-0.68l-0.19-0.69c-0.13-0.46-0.25-0.92-0.32-1.41
		c-0.04-0.24-0.09-0.48-0.12-0.72l-0.05-0.72c-0.12-1.93,0.17-3.91,0.94-5.71c0.76-1.8,2.01-3.4,3.57-4.56
		C6.1,26.65,8,25.82,9.85,25.39c1.77-0.4,2.87-0.45,3.57-0.46c0.77-0.02,1.06,0.02,1.28,0.02C15.1,24.95,14.02,25.3,14.02,25.3z"/>
	<g>
		<path d="M20.01,32.4c0.69,0,0.73-0.51,0.75-0.69l0.23-1.85h0.18l0.05,0.08v5.26l-0.05,0.08h-0.18l-0.23-1.85
			c-0.02-0.18-0.06-0.69-0.75-0.69h-2.48c-0.69,0-0.75,0.51-0.75,0.69v6.59c0,0.37,0.15,0.68,0.68,0.68h0.88l0.08,0.06v0.28h-5.49
			v-0.28l0.08-0.06h0.88c0.53,0,0.68-0.31,0.68-0.68V25.97c0-0.37-0.15-0.68-0.68-0.68h-0.88l-0.08-0.06v-0.28h8.48
			c0.69,0,1.04,0.27,1.14,0.34c0.33,0.22,0.52,0.14,0.67-0.36h0.18l0.06,0.08v3.55l-0.05,0.08h-0.18L23,26.67
			c-0.11-0.94-0.79-1.38-1.79-1.38h-3.75c-0.53,0-0.68,0.31-0.68,0.68v5.74c0,0.18,0.06,0.69,0.75,0.69H20.01z"/>
		<path d="M29.33,30.86c0.08-0.52-0.35-0.66-0.73-0.37c-1,0.74-1.58,1.24-1.58,2.69v6.85c0,0.37,0.15,0.68,0.68,0.68h0.5l0.08,0.06
			v0.28h-4.74v-0.28l0.08-0.06h0.51c0.53,0,0.68-0.31,0.68-0.68v-7.4c0-0.94-0.57-0.92-1.27-0.2l-0.16,0.03l-0.19-0.19l2.37-2.39
			h0.83c0.14,0,0.28,0,0.28,0.19c0,0.35,0,0.36,0,0.92c0,0.37,0.24,0.52,0.61,0.16c0.87-0.85,1.51-1.33,2.41-1.33
			c1.2,0,1.47,0.57,1.61,0.97C31.84,32.41,29.04,32.82,29.33,30.86z"/>
		<path d="M39.87,30.98c0.43-0.54,0.43-0.78-0.14-0.78h-1.47l-0.08-0.06v-0.28h6.01v0.28l-0.08,0.06h-0.43
			c-0.26,0-0.29,0.05-0.39,0.15l-2.68,3.2c2.51,0.93,2.64,2.41,2.26,5.88c0,0.67,0.42,0.99,1.39,1.17l0.16,0.1l0.07,0.34h-5.07
			l0.03-1.79c0-0.25,0.01-0.41,0.18-0.54c2.32-1.95,2.19-4.14,0.28-4.8c-1.25-0.43-1.7-0.35-2.51,0.52
			c-0.46,0.51-1.08,1.27-1.98,2.36c-0.25,0.29-0.41,0.67-0.41,1.2c0,1.85,0,1.47,0,2.03c0,0.37,0.15,0.68,0.68,0.68h1.35l0.08,0.06
			v0.28h-6.41v-0.28l0.08-0.06h1.33c0.53,0,0.68-0.31,0.68-0.68V27.16c0-0.94-0.57-0.92-1.27-0.2l-0.16,0.03L31.2,26.8l2.37-2.39
			h1.18c0.14,0,0.28,0,0.28,0.19v11.61c0,0.14,0.15,0.36,0.4,0.08L39.87,30.98z"/>
		<path d="M55.63,40.02c0,0.37,0.15,0.68,0.68,0.68h1.35l0.08,0.06v0.28h-6.41v-0.28l0.08-0.06h1.33c0.53,0,0.68-0.31,0.68-0.68
			c0-1.45,0-11.86,0-14.05c0-0.37-0.15-0.68-0.68-0.68h-1.33l-0.08-0.06v-0.28h6.41v0.28l-0.08,0.06h-1.35
			c-0.53,0-0.68,0.31-0.68,0.68c0,2.95,0,5.92,0,7.67c0,0.23,0.16,0.65,0.61,0.11l6.88-8.08c0.23-0.26,0.05-0.39-0.24-0.39h-1.04
			l-0.08-0.06v-0.28h5.45v0.28l-0.08,0.06h-0.46c-0.2,0-0.34,0.03-0.51,0.23l-4.31,5.08c3.12,1.01,5,3.92,3.61,8.59
			c0,0.67,0.46,1.22,1.44,1.41l0.16,0.1l0.03,0.34H61.9l0.03-1.79c0-0.32,0.08-0.45,0.18-0.54c2.18-2.11,3.89-6.55-0.73-7.95
			c-1.11-0.27-2.07,0.06-3.07,1.09c-0.59,0.61-1.28,1.43-2.24,2.6c-0.25,0.29-0.41,0.77-0.41,1.22L55.63,40.02z"/>
		<path d="M75.03,41.04c-0.35,0-0.88-0.17-0.88-0.8c0-0.22,0-0.24,0-0.5c0-0.29-0.28-0.35-0.44-0.18c-1.38,1.49-1.13,1.68-2.94,1.68
			c-3.76,0-3.8-5.15-1.04-5.92c0.65-0.18,1.53-0.35,2.43-0.61c0.94-0.27,0.95-0.27,1.55-0.49c1-0.36,1-0.94,1-1.53
			c0-1.39-0.82-2.46-2.14-2.46c-1.35,0-2.14,0.94-1.97,1.75c0.08,0.37,0.46,0.68,0.44,1.14c-0.07,1.16-1.66,1.33-2.04,0.25
			c-0.61-1.7,1.52-3.46,3.55-3.49c2.45-0.05,3.81,1.77,3.81,4.63v5.44c0,0.37,0.14,0.4,0.78,0.26l0.08,0.06v0.2
			C76.48,40.85,75.66,41.04,75.03,41.04z M73.72,34.64c-0.42,0.14-0.35,0.1-1.61,0.49c-3.8,1.16-1.77,7.07,0.41,5.16
			c0.46-0.41,1.16-1.33,1.3-1.56c0.34-0.54,0.34-1.24,0.34-2.01c0-0.51,0.01-1.17,0.01-1.81C74.18,34.71,74.21,34.49,73.72,34.64z"
			/>
		<path d="M84.01,30.86c0.08-0.52-0.35-0.66-0.73-0.37c-1,0.74-1.58,1.24-1.58,2.69v6.85c0,0.37,0.15,0.68,0.68,0.68h0.5l0.08,0.06
			v0.28h-4.74v-0.28l0.08-0.06h0.51c0.53,0,0.68-0.31,0.68-0.68v-7.4c0-0.94-0.57-0.92-1.27-0.2l-0.16,0.03l-0.19-0.19l2.37-2.39
			h0.83c0.14,0,0.28,0,0.28,0.19c0,0.35,0,0.36,0,0.92c0,0.37,0.24,0.52,0.61,0.16c0.87-0.85,1.51-1.33,2.41-1.33
			c1.2,0,1.47,0.57,1.61,0.97C86.51,32.41,83.71,32.82,84.01,30.86z"/>
		<path d="M90.07,40.02c0,0.37,0.15,0.68,0.68,0.68h0.71l0.08,0.06v0.28h-5.19v-0.28l0.08-0.06h0.75c0.53,0,0.68-0.31,0.68-0.68
			V27.24c0-0.94-0.51-0.94-1.21-0.23l-0.16,0.03l-0.25-0.25l2.37-2.39h1.18c0.14,0,0.28,0,0.28,0.19V40.02z"/>
		<path d="M99.13,29.58h0.18l0.06,0.08v3.55l-0.05,0.08h-0.18l-0.12-1.08c-0.1-0.66-0.27-1.42-0.74-1.72
			c-0.65-0.42-1.46-0.56-2.2-0.56c-2.38,0-3.05,2.51-0.67,3.53c0.77,0.33,2.2,0.84,2.96,1.13c3.49,1.37,2,6.79-2.2,6.79
			c-2.43,0-4.35-2.14-3.5-3.81c0.69-1.35,2.55,0.23,1.03,1.03c-1.22,0.65,0.51,2.41,2.47,2.41c2.88,0,4.26-2.8,1.53-4.02
			c-0.9-0.4-2.68-1.01-3.57-1.39c-1.05-0.45-1.49-1.45-1.49-2.49c0-1.77,1.18-3.53,3.43-3.53c0.8,0,1.72,0.17,2.38,0.6
			C98.9,30.47,98.98,30.08,99.13,29.58z"/>
		<path d="M107.98,29.58h0.18l0.06,0.08v3.55l-0.05,0.08h-0.18l-0.12-1.08c-0.1-0.66-0.27-1.42-0.74-1.72
			c-0.65-0.42-1.46-0.56-2.2-0.56c-2.38,0-3.05,2.51-0.67,3.53c0.77,0.33,2.2,0.84,2.96,1.13c3.49,1.37,2,6.79-2.2,6.79
			c-2.43,0-4.35-2.14-3.5-3.81c0.69-1.35,2.55,0.23,1.03,1.03c-1.22,0.65,0.51,2.41,2.47,2.41c2.88,0,4.26-2.8,1.53-4.02
			c-0.9-0.4-2.68-1.01-3.57-1.39c-1.05-0.45-1.49-1.45-1.49-2.49c0-1.77,1.18-3.53,3.43-3.53c0.8,0,1.72,0.17,2.38,0.6
			C107.76,30.47,107.84,30.08,107.98,29.58z"/>
		<path d="M124.74,32.43c0-0.68-0.65-0.8-1.03-0.45c-0.74,0.68-1.55,1.35-2.39,1.98c0.08,0.48,0.12,0.97,0.12,1.51
			c0,4.41-2.95,5.91-5.61,5.91c-2.28,0-4.75-1.09-5.43-4.15c-3.67-2.85-0.97-8.99,4.55-8.88c2.8,0,5.52,1.88,6.28,5.2
			c1.47-1.13,2.92-2.45,4.26-3.88h1.18c0.14,0,0.28,0,0.28,0.19v0.4c0,0.19,0.12,0.66,0.78,0.27c0.96-0.57,2.02-0.9,2.94-0.9
			c5.35,0,5.85,5.36,4.1,9.78c0,0.67,0.42,0.99,1.39,1.17l0.16,0.1l0.07,0.34h-5.07l0.03-1.79c0-0.26,0.03-0.42,0.18-0.54
			c2.53-2.12,4.32-8.71-0.85-8.71c-1.09,0-2.2,0.48-2.89,1.08c-0.37,0.33-0.88,0.82-0.88,1.8v7.14c0,0.37,0.15,0.68,0.68,0.68h1.21
			l0.08,0.06v0.28h-6.09v-0.28l0.08-0.06h1.18c0.53,0,0.68-0.31,0.68-0.68V32.43z M112.2,31.06c1.05-0.78,2.36-0.82,1.79-0.23
			c-0.96,0.99-1.53,2.62-1.53,4.64c0,0.68,0.03,1.35,0.11,1.97c1.85,0.03,4.19-0.9,6.61-2.45c-0.06-3.83-0.87-6.3-4.27-6.3
			c-5.69,0-7.18,5.86-4.61,7.98c-0.06-0.37-0.08-0.77-0.08-1.2C110.22,33.26,111.04,31.99,112.2,31.06z M115.83,41.03
			c2.78,0,3.37-2.66,3.37-5.55v-0.05c-2.27,1.42-4.63,2.41-6.55,2.41C112.97,39.68,113.84,41.03,115.83,41.03z"/>
		<path d="M48.06,60.87c-0.76,2.11-2.52,3.62-5.62,3.62c-3.3,0-7.54-2.7-7.54-8.42s4.24-8.42,7.54-8.42c2.15,0,3.51,0.78,4.18,1.27
			c0.43,0.32,0.61-0.42,0.76-0.92h0.18l0.06,0.08v4.13l-0.05,0.08H47.4l-0.19-1.49c-0.27-2.1-2.82-2.91-4.76-2.8
			c-2.72,0.16-4.82,2.15-4.82,8.07s2.1,7.91,4.82,8.07c1.76,0.1,4.39-0.48,5.45-3.52C47.99,60.31,48.2,60.47,48.06,60.87z"/>
		<path d="M65.59,52.9c0.14,0,0.28,0,0.28,0.19l-0.01,8.54c0,1.19,0.02,1.94,1.1,2.13c0.33,0.06,0.73,0.09,1.1,0.09
			c1.03,0,2.18-0.33,3.22-1.02c0.53-0.37,0.66-0.57,0.66-2.13v-5.04c0-0.94-0.57-0.92-1.27-0.2l-0.16,0.03l-0.19-0.19l2.37-2.39
			h1.18c0.14,0,0.28,0,0.28,0.19v9.93c0,0.37,0.14,0.35,0.78,0.22l0.08,0.06v0.2c-0.73,0.39-1.54,0.58-2.18,0.58
			c-0.24,0-0.87-0.03-0.87-0.69v-0.23c0-0.26-0.29-0.14-0.61,0.08c-1.07,0.73-2.23,0.96-3.29,0.96c-0.41,0-0.78-0.03-1.12-0.09
			c-1.92-0.33-3.26-1.39-3.28-4.69v-3.63c0-0.61-0.57-0.69-1.03-0.23c-0.66,0.66-0.82,0.86-1.69,1.58c0.07,0.44,0.1,0.9,0.1,1.37
			c0,4.41-2.95,5.91-5.61,5.91c-2.28,0-4.77-1.1-5.44-4.17c-3.66-2.85-0.94-8.97,4.56-8.85c2.85,0,5.59,1.93,6.31,5.34
			c1.39-1.14,2.31-2.37,3.55-3.83H65.59z M51.81,54.1c1.05-0.78,2.36-0.82,1.79-0.23c-0.96,0.99-1.53,2.62-1.53,4.64
			c0,0.69,0.03,1.37,0.12,2.01c1.85,0.07,4.19-0.84,6.61-2.36c-0.05-3.9-0.84-6.43-4.29-6.43c-5.69,0-7.18,5.86-4.61,7.99
			c-0.06-0.37-0.08-0.78-0.08-1.21C49.82,56.3,50.65,55.03,51.81,54.1z M55.43,64.07c2.75,0,3.36-2.62,3.37-5.48
			c-2.23,1.34-4.61,2.29-6.56,2.28C52.58,62.71,53.44,64.07,55.43,64.07z"/>
		<path d="M77.62,53.21c0-0.84-0.35-0.91-1.18-0.48l-0.16,0.03l-0.16-0.26c1.49-0.76,2.74-1.3,3.42-2.8
			c0.09-0.19,0.28-0.15,0.28,0.02v2.58c0.01,0.59,0.39,0.58,0.75,0.59h1.09l0.08,0.06v0.28h-1.17c-0.37,0.01-0.75,0-0.75,0.63v6.45
			c0,3.28,0.71,3.68,2.86,3.39v0.34c-2.41,0.53-5.07,0.36-5.07-3.73V53.21z"/>
		<path d="M84,55.66c0-0.94-0.57-0.92-1.27-0.2l-0.16,0.03l-0.19-0.19l2.37-2.39h1.18c0.14,0,0.28,0,0.28,0.19l-0.01,8.54
			c0,1.19,0.02,1.94,1.1,2.13c0.33,0.06,0.73,0.09,1.1,0.09c1.03,0,2.18-0.33,3.22-1.02c0.53-0.37,0.66-0.57,0.66-2.13
			c0-0.83,0-3.85,0-5.04c0-0.94-0.57-0.92-1.27-0.2l-0.16,0.03l-0.19-0.19l2.37-2.39h1.18c0.14,0,0.28,0,0.28,0.19v9.93
			c0,0.37,0.14,0.35,0.78,0.22l0.08,0.06v0.2c-0.73,0.39-1.54,0.58-2.18,0.58c-0.24,0-0.87-0.03-0.87-0.69c0-0.2,0,0.45,0-0.23
			c0-0.26-0.29-0.14-0.61,0.08c-1.07,0.73-2.23,0.96-3.29,0.96c-0.41,0-0.78-0.03-1.12-0.09c-1.92-0.33-3.26-1.39-3.28-4.69V55.66z"
			/>
		<path d="M102.55,53.9c0.08-0.52-0.35-0.66-0.73-0.37c-1,0.74-1.58,1.24-1.58,2.69v6.85c0,0.37,0.15,0.68,0.68,0.68h0.5l0.08,0.06
			v0.28h-4.74V63.8l0.08-0.06h0.51c0.53,0,0.68-0.31,0.68-0.68v-7.4c0-0.94-0.57-0.92-1.27-0.2l-0.16,0.03l-0.19-0.19l2.37-2.39
			h0.83c0.14,0,0.28,0,0.28,0.19c0,0.35,0,0.36,0,0.92c0,0.37,0.24,0.52,0.61,0.16c0.87-0.85,1.51-1.33,2.41-1.33
			c1.2,0,1.47,0.57,1.61,0.97C105.05,55.45,102.25,55.86,102.55,53.9z"/>
		<path d="M113.75,61.76l0.2,0.16c-1.09,1.29-2.28,2.32-3.98,2.36c-2.56,0.06-5.16-1.37-5.16-5.78c0-3.65,2.46-5.58,5.12-5.58
			c4.57,0,5.29,4.39,2.86,5.79c-1.5,0.86-4.44,1.53-5.68,1.83c0.16,2,0.76,3.39,2.86,3.39C111.19,63.92,112.57,63.28,113.75,61.76z
			 M107.09,60.18c1.04-0.26,2.75-0.66,3.37-0.99c2-1.07,2.51-5.93-0.52-5.93c-2.78,0-2.88,2.34-2.88,5.23
			C107.06,59.08,107.06,59.62,107.09,60.18z"/>
	</g>
</g>
</svg>
